<?xml version="1.0" encoding="UTF-8" standalone="no"?>
<svg
   height="25"
   width="25"
   viewBox="0 0 533.33333 533.33333"
   version="1.1"
   id="svg4"
   sodipodi:docname="logo.svg"
   inkscape:export-filename="logo-b.png"
   inkscape:export-xdpi="491.51999"
   inkscape:export-ydpi="491.51999"
   inkscape:version="1.2.2 (b0a8486541, 2022-12-01)"
   xmlns:inkscape="http://www.inkscape.org/namespaces/inkscape"
   xmlns:sodipodi="http://sodipodi.sourceforge.net/DTD/sodipodi-0.dtd"
   xmlns="http://www.w3.org/2000/svg"
   xmlns:svg="http://www.w3.org/2000/svg">
  <defs
     id="defs8" />
  <sodipodi:namedview
     id="namedview6"
     pagecolor="#ffffff"
     bordercolor="#666666"
     borderopacity="1.0"
     inkscape:showpageshadow="2"
     inkscape:pageopacity="0.0"
     inkscape:pagecheckerboard="true"
     inkscape:deskcolor="#d1d1d1"
     showgrid="false"
     inkscape:zoom="39.333333"
     inkscape:cx="11.338983"
     inkscape:cy="16.588983"
     inkscape:window-width="1920"
     inkscape:window-height="1011"
     inkscape:window-x="0"
     inkscape:window-y="32"
     inkscape:window-maximized="1"
     inkscape:current-layer="svg4" />
  <!--!Font Awesome Free 6.7.1 by @fontawesome - https://fontawesome.com License - https://fontawesome.com/license/free Copyright 2024 Fonticons, Inc.-->
  <path
     d="m 35.97801,38.533402 c -17.7,0 -31.9999997,14.3 -31.9999997,32 0,17.7 14.2999997,31.999998 31.9999997,31.999998 h 5.866667 v 64 H 3.9780103 v 128 c 53.0000067,0 78.9333367,43 78.9333367,96 v 64 c 0,17.7 14.3,32 32.000003,32 h 32 c 17.7,0 32,-14.3 32,-32 v -64 c 0,-53 25.93333,-96 78.93333,-96 6.3,0 3.86422,0.6 9.76422,1.7 33.28001,-70.77 97.23772,-86.45267 137.1271,-85.75221 46.30853,0.81318 86.53684,12.99454 116.77099,56.82547 l 0.87102,-100.77326 h -48.53333 v -64 h 16.53333 c 17.7,0 32,-14.299998 32,-31.999998 0,-17.7 -14.3,-32 -32,-32 z M 425.84468,102.5334 v 64 h -80 v -64 z m -128,0 v 64 h -80 v -64 z m -128,0 v 64 H 89.844677 v -64 z"
     id="path2"
     style="fill:#000000;fill-opacity:1"
     sodipodi:nodetypes="sssccccssssssscsccccssssccccccccccccccc" />
  <!--!Font Awesome Free 6.7.1 by @fontawesome - https://fontawesome.com License - https://fontawesome.com/license/free Copyright 2024 Fonticons, Inc.-->
  <!--!Font Awesome Free 6.7.1 by @fontawesome - https://fontawesome.com License - https://fontawesome.com/license/free Copyright 2024 Fonticons, Inc.-->
  <g
     id="g8864"
     transform="matrix(0.88888926,0,0,0.88888926,-35.609998,42.219959)"
     style="fill:#000000;fill-opacity:1">
    <path
       id="path3296"
       style="fill:#000000;fill-opacity:1;stroke-width:1"
       d="M 494.27979 217.25245 C 414.75105 217.25245 350.27985 281.72372 350.27985 361.25239 C 350.27985 440.78108 414.75105 505.25233 494.27979 505.25233 C 573.80853 505.25233 638.27973 440.78108 638.27973 361.25239 C 638.27973 281.72372 573.80853 217.25245 494.27979 217.25245 z M 566.46726 293.56492 C 567.59013 293.52872 568.6704 293.93994 569.46726 294.7368 C 570.26414 295.53367 570.72223 296.61398 570.68601 297.73679 L 569.70163 331.53366 C 569.65333 333.17564 568.6448 334.6331 567.12351 335.23678 C 565.60222 335.84046 563.86427 335.49316 562.71726 334.34615 L 553.99851 325.62741 L 519.26415 360.40864 C 517.12714 362.54569 513.66684 362.5457 511.52978 360.40864 L 503.79541 352.67427 C 501.65836 350.53722 501.65835 347.12381 503.79541 344.98677 L 538.57664 310.20554 L 529.8579 301.48679 C 528.69883 300.32772 528.36358 298.60182 528.96727 297.08054 C 529.57096 295.55929 531.02837 294.55071 532.6704 294.50242 L 566.46726 293.56492 z M 425.51419 293.70555 L 459.35793 294.64305 C 460.99995 294.69135 462.45737 295.74677 463.06105 297.26804 C 463.66472 298.78934 463.27057 300.52728 462.12355 301.67429 L 453.45168 310.34616 L 488.23292 345.1274 C 490.36996 347.26446 490.36995 350.72472 488.23292 352.86177 L 480.49854 360.59614 C 478.36151 362.73318 474.90122 362.73319 472.76417 360.59614 L 437.98294 325.81491 L 429.31107 334.48678 C 428.152 335.64586 426.42612 335.98108 424.90482 335.3774 C 423.38354 334.77371 422.32812 333.36317 422.27982 331.72116 L 421.34232 297.87742 C 421.30612 296.75456 421.71732 295.67429 422.51419 294.87742 C 423.31106 294.08055 424.39134 293.66932 425.51419 293.70555 z M 477.17042 373.81489 C 478.56796 373.81488 479.99252 374.34011 481.06104 375.40864 L 488.79542 383.14301 C 490.93245 385.28005 490.93245 388.74033 488.79542 390.87738 L 454.01418 425.65862 L 462.68605 434.33049 C 463.83307 435.47751 464.22724 437.21544 463.62355 438.73673 C 463.01987 440.25803 461.56246 441.26656 459.92043 441.31486 L 426.12357 442.29923 C 425.00071 442.33546 423.87357 441.92423 423.07669 441.12736 C 422.27983 440.33049 421.86862 439.20334 421.90482 438.08049 L 422.88919 404.28362 C 422.93749 402.6416 423.94604 401.18418 425.46732 400.5805 C 426.98863 399.9768 428.71448 400.35893 429.87357 401.518 L 438.54544 410.18987 L 473.32667 375.40864 C 474.3952 374.34011 475.77288 373.81489 477.17042 373.81489 z M 514.81103 373.95551 C 516.20857 373.95551 517.58625 374.52761 518.65478 375.59614 L 553.43601 410.3305 L 562.15476 401.65863 C 563.30177 400.51162 565.0397 400.1643 566.56101 400.768 C 568.0823 401.37167 569.09083 402.82912 569.13913 404.47112 L 570.07663 438.26799 C 570.11286 439.39082 569.70163 440.4711 568.90476 441.26798 C 568.10789 442.06483 567.02763 442.47606 565.90476 442.43986 L 532.1079 441.50236 C 530.46587 441.45407 529.00846 440.44552 528.40477 438.92423 C 527.80108 437.40296 528.13633 435.67707 529.2954 434.51799 L 538.01415 425.79924 L 503.23291 391.01801 C 501.09585 388.88096 501.09587 385.46755 503.23291 383.33051 L 510.96728 375.59614 C 512.03581 374.52761 513.41349 373.95551 514.81103 373.95551 z " />
  </g>
</svg>
